<svg xmlns="http://www.w3.org/2000/svg" viewBox="0 0 226 41">
  <defs>
    <style>
      .st0{fill:none;stroke:#2C3B45;}
      .st1{fill:#2066B1;}
      .st2{fill:#2C3B45;}
    </style>
  </defs>
  <g>
    <line class="st0" x1="78.5" y1="41" x2="78.5" y2="0"/>
    <polygon class="st1" points="8.1,0 34.3,15.3 60.5,0 8.1,0 	"/>
    <polygon class="st1" points="8.1,41 34.3,25.7 60.5,41 8.1,41 	"/>
    <polygon class="st1" points="0,4.7 0,36.3 26,20.5 0,4.7 	"/>
    <polygon class="st1" points="69,4.7 69,36.3 43,20.5 69,4.7 	"/>
    <path class="st2" d="M95.4,35c4.5,0,9.6-1.8,9.6-8.4V9h-4v2.6c-2-2-3.8-3-6.1-3c-4.8,0-8.3,3.5-8.3,9.5c0,6.1,3.6,9.5,8.3,9.5
        c2.4,0,4-1.2,6-3.1v2.1c0,3.9-3,5.2-5.6,5.2c-2.4,0-4.4-0.6-6-2.4l-1.8,2.9C89.9,34.3,92.2,35,95.4,35L95.4,35z M96.1,24
        c-3.2,0-5.3-2.3-5.3-5.9c0-3.5,2.2-5.9,5.4-5.9c1.9,0,3.9,1.1,4.9,2.4v6.9C100,22.9,98,24,96.1,24L96.1,24z M118.1,28
        c5.9,0,9.5-4.4,9.5-9.7c0-5.3-3.6-9.7-9.5-9.7s-9.5,4.3-9.5,9.7C108.6,23.5,112.2,28,118.1,28L118.1,28z M118.1,24.4
        c-3.4,0-5.3-2.9-5.3-6.1c0-3.2,1.9-6.1,5.3-6.1c3.4,0,5.3,2.9,5.3,6.1C123.4,21.6,121.5,24.4,118.1,24.4L118.1,24.4z M140.1,28
        l7.5-19h-4.3L138,22.8L132.6,9h-4.3l7.5,19H140.1L140.1,28z M150.3,27.9c1.4,0,2.7-1.3,2.7-2.7c0-1.4-1.2-2.6-2.7-2.6
        s-2.7,1.2-2.7,2.6C147.6,26.7,148.9,27.9,150.3,27.9L150.3,27.9z M164.2,28c5,0,7.7-2.5,7.7-5.8c0-7.3-11.1-4.9-11.1-8.1
        c0-1.3,1.3-2.3,3.4-2.3c2.3,0,4.3,1,5.5,2.2l1.7-2.8c-1.6-1.4-4-2.6-7.1-2.6c-4.7,0-7.2,2.6-7.2,5.6c0,7.1,11.1,4.5,11.1,8.1
        c0,1.4-1.3,2.4-3.7,2.4c-2.4,0-4.9-1.2-6.2-2.6l-1.8,2.9C158.2,26.9,161.1,28,164.2,28L164.2,28z M184.1,28c3.6,0,5.8-1.6,7.1-3.3
        l-2.6-2.5c-1,1.4-2.4,2.2-4.2,2.2c-3.3,0-5.6-2.6-5.6-6.1c0-3.6,2.3-6.1,5.6-6.1c1.8,0,3.2,0.7,4.2,2.1l2.6-2.4
        c-1.3-1.8-3.4-3.3-7.1-3.3c-5.6,0-9.5,4.1-9.5,9.7C174.6,23.8,178.5,28,184.1,28L184.1,28z M202.4,28c5.9,0,9.5-4.4,9.5-9.7
        c0-5.3-3.6-9.7-9.5-9.7c-5.9,0-9.5,4.3-9.5,9.7C192.9,23.5,196.5,28,202.4,28L202.4,28z M202.4,24.4c-3.4,0-5.3-2.9-5.3-6.1
        c0-3.2,1.9-6.1,5.3-6.1c3.4,0,5.3,2.9,5.3,6.1C207.7,21.6,205.8,24.4,202.4,24.4L202.4,24.4z M221.5,28c1.8,0,2.9-0.5,3.6-1.2
        l-1-3.1c-0.3,0.3-0.8,0.7-1.6,0.7c-1.1,0-1.6-1-1.6-2.2V13h3V9h-3V4h-4v5h-4v4h4v10.2C217,26.3,218.4,28,221.5,28L221.5,28z"/>
  </g>
</svg>
