<svg id="Layer_1" data-name="Layer 1" xmlns="http://www.w3.org/2000/svg" xmlns:xlink="http://www.w3.org/1999/xlink" viewBox="0 0 174.06 24"><defs><style>.cls-1,.cls-5{fill:none;}.cls-3{fill:#0071bb;}.cls-4{clip-path:url(#clip-path);}.cls-5{stroke:#2c3b46;stroke-width:1.5px;}.cls-6{fill:#80838b;}.cls-7{fill:#2c3b46;}</style><clipPath id="clip-path" transform="translate(0 0)"><rect class="cls-1" width="174.06" height="24"/></clipPath></defs><title>govlogo-small</title><polygon class="cls-3" points="4.46 0 18.83 8.42 33.2 0 4.46 0"/><polygon class="cls-3" points="4.46 22.46 18.83 14.04 33.2 22.46 4.46 22.46"/><polygon class="cls-3" points="0 19.92 14.29 11.24 0 2.55 0 19.92"/><polygon class="cls-3" points="37.85 2.55 37.85 19.92 23.56 11.24 37.85 2.55"/><g class="cls-4"><line class="cls-5" x1="44.19" y1="22.46" x2="44.19"/><path class="cls-6" d="M57.28,21.37l-2.2-3.51a2.5,2.5,0,0,0,2.13-2.62,2.71,2.71,0,0,0-2.93-2.8H50.35v8.93h1.57V18h1.57l2,3.33Zm-3.2-4.71H51.92V13.82h2.16a1.42,1.42,0,1,1,0,2.84m5.2-2.55a.87.87,0,1,0-.87-.87.87.87,0,0,0,.87.87m.7.79H58.57v6.47H60Zm7.64,6.47V14.9H66.21v.9a2.53,2.53,0,0,0-2.07-1.06c-1.66,0-2.87,1.3-2.87,3.39s1.22,3.41,2.87,3.41a2.6,2.6,0,0,0,2.07-1.05v.88Zm-3.07-1.08a1.91,1.91,0,0,1-1.83-2.16A1.9,1.9,0,0,1,64.55,16a2.09,2.09,0,0,1,1.66.87v2.56a2.09,2.09,0,0,1-1.66.87M72,24c1.58,0,3.33-.63,3.33-3V14.9H73.9v.9a2.53,2.53,0,0,0-2.08-1.06C70.15,14.74,69,16,69,18.06s1.22,3.33,2.86,3.33A2.6,2.6,0,0,0,73.9,20.3V21A1.72,1.72,0,0,1,72,22.85,2.57,2.57,0,0,1,69.92,22l-.66,1A3.74,3.74,0,0,0,72,24m.26-3.87a1.84,1.84,0,0,1-1.84-2.07A1.84,1.84,0,0,1,72.24,16a2.15,2.15,0,0,1,1.66.86v2.42a2.15,2.15,0,0,1-1.66.86m10.53,1.24V16.79a1.85,1.85,0,0,0-2.09-2,3.06,3.06,0,0,0-2.28,1V12.44H77v8.93H78.4V16.85A2.16,2.16,0,0,1,80.06,16c.79,0,1.3.29,1.3,1.31v4.07Zm7.68,0V14.9h-1.4v.9A2.55,2.55,0,0,0,87,14.74c-1.66,0-2.87,1.3-2.87,3.39s1.22,3.41,2.87,3.41a2.63,2.63,0,0,0,2.08-1.05v.88Zm-3.06-1.08a1.91,1.91,0,0,1-1.84-2.16A1.9,1.9,0,0,1,87.39,16a2.12,2.12,0,0,1,1.66.87v2.56a2.12,2.12,0,0,1-1.66.87m6.4,1.25a1.92,1.92,0,0,0,1.33-.42l-.34-1.07a.9.9,0,0,1-.63.24c-.4,0-.61-.34-.61-.78V12.44H92.13v7.42a1.5,1.5,0,0,0,1.66,1.68m3.86,0A1.91,1.91,0,0,0,99,21.12l-.34-1.07a.88.88,0,0,1-.61.24c-.41,0-.62-.34-.62-.78V16.12h1.31V14.9H97.4V13.13H96V14.9H94.92v1.22H96v3.74a1.49,1.49,0,0,0,1.66,1.68m8.07-.17V14.9h-1.41v.9a2.53,2.53,0,0,0-2.08-1.06c-1.66,0-2.87,1.3-2.87,3.39s1.22,3.41,2.87,3.41a2.62,2.62,0,0,0,2.08-1.05v.88Zm-3.07-1.08a1.91,1.91,0,0,1-1.84-2.16A1.9,1.9,0,0,1,102.65,16a2.12,2.12,0,0,1,1.66.87v2.56a2.12,2.12,0,0,1-1.66.87m7,1.25c1.74,0,2.69-.88,2.69-2,0-2.57-3.91-1.71-3.91-2.85,0-.46.45-.81,1.19-.81a2.64,2.64,0,0,1,1.92.78l.59-1a3.71,3.71,0,0,0-2.51-.9c-1.63,0-2.54.9-2.54,2,0,2.49,3.91,1.58,3.91,2.85,0,.51-.45.86-1.29.86a3.3,3.3,0,0,1-2.18-.9l-.65,1a4,4,0,0,0,2.78,1m13.21-.17V16.82a1.87,1.87,0,0,0-2.09-2.08,3.08,3.08,0,0,0-2.29,1V14.9H117.1v6.47h1.41V16.85a2.19,2.19,0,0,1,1.66-.86c.79,0,1.31.32,1.31,1.34v4Zm7.66,0V14.9h-1.4v.9a2.55,2.55,0,0,0-2.08-1.06c-1.66,0-2.87,1.3-2.87,3.39s1.22,3.41,2.87,3.41a2.63,2.63,0,0,0,2.08-1.05v.88Zm-3.07-1.08a1.91,1.91,0,0,1-1.83-2.16A1.9,1.9,0,0,1,127.48,16a2.12,2.12,0,0,1,1.67.87v2.56a2.12,2.12,0,0,1-1.67.87m14,1.08V16.79a1.85,1.85,0,0,0-2.09-2,3,3,0,0,0-2.27,1V12.44h-1.41v8.93h1.41V16.85a2.14,2.14,0,0,1,1.66-.86c.79,0,1.3.29,1.3,1.31v4.07Zm4.63-3.84H142.9v1.2h3.21Zm9.49,3.84-3.51-8.93h-2l-3.51,8.93h1.78l.65-1.72h4.1l.66,1.72Zm-2.88-3.1h-3.21l1.6-4.26ZM158,21.54a1.92,1.92,0,0,0,1.33-.42L159,20.05a.92.92,0,0,1-.63.24c-.4,0-.61-.34-.61-.78V12.44h-1.41v7.42A1.5,1.5,0,0,0,158,21.54m3.56-2.11V16.86a2.16,2.16,0,0,1,1.68-.87,1.9,1.9,0,0,1,1.82,2.14c0,1.26-.71,2.16-1.82,2.16a2.15,2.15,0,0,1-1.68-.86m0,1.94v-.88a2.65,2.65,0,0,0,2.08,1.05c1.66,0,2.88-1.26,2.88-3.41s-1.2-3.39-2.88-3.39a2.57,2.57,0,0,0-2.08,1.06V12.44h-1.4v8.93Zm12.3,0V14.9h-1.4v.9a2.55,2.55,0,0,0-2.08-1.06c-1.66,0-2.87,1.3-2.87,3.39s1.22,3.41,2.87,3.41a2.63,2.63,0,0,0,2.08-1.05v.88Zm-3.06-1.08A1.91,1.91,0,0,1,169,18.13,1.9,1.9,0,0,1,170.83,16a2.12,2.12,0,0,1,1.66.87v2.56a2.12,2.12,0,0,1-1.66.87" transform="translate(0 0)"/><path class="cls-7" d="M53.55,9.69C55.94,9.69,57,8.41,57,6.92c0-3.32-5.2-2.29-5.2-4,0-.65.59-1.11,1.5-1.11a3.64,3.64,0,0,1,2.6,1l.89-1.16A4.61,4.61,0,0,0,53.45.45c-2,0-3.25,1.14-3.25,2.62,0,3.29,5.19,2.12,5.19,4,0,.6-.49,1.23-1.78,1.23a3.82,3.82,0,0,1-2.82-1.25L49.9,8.27a4.89,4.89,0,0,0,3.65,1.42m7.78,0a2.91,2.91,0,0,0,2.48-1.15l-.92-.87a1.75,1.75,0,0,1-1.49.78,2,2,0,0,1-2-2.16,2,2,0,0,1,2-2.14,1.73,1.73,0,0,1,1.49.75l.92-.85A2.86,2.86,0,0,0,61.33,2.9,3.24,3.24,0,0,0,58,6.29a3.25,3.25,0,0,0,3.33,3.4m6.43,0a3.24,3.24,0,0,0,3.32-3.4,3.32,3.32,0,1,0-6.64,0,3.24,3.24,0,0,0,3.32,3.4m0-1.24A2,2,0,0,1,65.9,6.29a1.88,1.88,0,1,1,3.72,0,1.94,1.94,0,0,1-1.86,2.16M74.4,9.69a1.93,1.93,0,0,0,1.31-.41l-.33-1.07a.89.89,0,0,1-.62.24c-.4,0-.62-.34-.62-.78V4.28h1.32V3.06H74.14V1.29h-1.4V3.06H71.67V4.28h1.07V8A1.49,1.49,0,0,0,74.4,9.69m4.51,0a1.93,1.93,0,0,0,1.31-.41l-.33-1.07a.89.89,0,0,1-.62.24c-.4,0-.61-.34-.61-.78V4.28H80V3.06H78.66V1.29H77.25V3.06H76.18V4.28h1.07V8a1.49,1.49,0,0,0,1.66,1.67m3-7.42A.87.87,0,1,0,81,1.4a.87.87,0,0,0,.87.87m.7.79H81.2V9.53h1.41Zm4,6.63c1.75,0,2.7-.87,2.7-2,0-2.57-3.92-1.72-3.92-2.85,0-.46.46-.81,1.2-.81a2.64,2.64,0,0,1,1.91.78l.59-1a3.66,3.66,0,0,0-2.5-.9c-1.64,0-2.55.9-2.55,2,0,2.49,3.91,1.58,3.91,2.85,0,.51-.44.86-1.28.86a3.35,3.35,0,0,1-2.19-.9l-.64,1a3.9,3.9,0,0,0,2.77,1m9.82-.16V5A1.84,1.84,0,0,0,94.33,2.9a3.06,3.06,0,0,0-2.28,1V.59h-1.4V9.53h1.4V5a2.17,2.17,0,0,1,1.67-.85c.79,0,1.3.29,1.3,1.31V9.53Zm9.21.18c2.82,0,4.45-2,4.45-5H105.2V6.1h3.18a2.59,2.59,0,0,1-2.61,2.2,3.07,3.07,0,0,1-3.08-3.23,3.05,3.05,0,0,1,3.08-3.23A2.87,2.87,0,0,1,108.08,3l1.28-.73A4.18,4.18,0,0,0,105.77.45a4.49,4.49,0,0,0-4.69,4.62,4.48,4.48,0,0,0,4.55,4.64m8.55,0a3.24,3.24,0,0,0,3.32-3.4,3.32,3.32,0,1,0-6.64,0,3.24,3.24,0,0,0,3.32,3.4m0-1.24a2,2,0,0,1-1.86-2.16,1.88,1.88,0,1,1,3.72,0,1.94,1.94,0,0,1-1.86,2.16m7.75,1.08,2.64-6.47h-1.5l-1.89,4.85-1.89-4.85h-1.51l2.64,6.47Zm6.3.16a3.82,3.82,0,0,0,2.63-.95l-.64-.92a2.72,2.72,0,0,1-1.85.72,2,2,0,0,1-2.05-1.78h5V6.41c0-2-1.23-3.51-3.17-3.51a3.27,3.27,0,0,0-3.29,3.39,3.25,3.25,0,0,0,3.39,3.4M130,5.75H126.3a1.78,1.78,0,0,1,1.81-1.7A1.74,1.74,0,0,1,130,5.75m4.1,3.78V5.12a2.2,2.2,0,0,1,1.67-.87,2.42,2.42,0,0,1,.43,0V2.9a2.78,2.78,0,0,0-2.1,1.1V3.06h-1.41V9.53Zm8.93,0V5a1.86,1.86,0,0,0-2.09-2.08,3.08,3.08,0,0,0-2.29,1V3.06h-1.41V9.53h1.41V5a2.2,2.2,0,0,1,1.66-.85c.79,0,1.32.32,1.32,1.33v4Zm11.1,0V4.86a1.72,1.72,0,0,0-1.87-2A2.7,2.7,0,0,0,150,4.08a1.7,1.7,0,0,0-1.77-1.18,2.87,2.87,0,0,0-2.12,1V3.06h-1.41V9.53h1.41V5a2,2,0,0,1,1.5-.85c.76,0,1.06.46,1.06,1.16V9.53h1.41V5a1.91,1.91,0,0,1,1.5-.85c.76,0,1.07.46,1.07,1.16V9.53Zm4.76.16a3.78,3.78,0,0,0,2.62-.95l-.64-.92a2.7,2.7,0,0,1-1.85.72,2,2,0,0,1-2.05-1.78h5V6.41c0-2-1.24-3.51-3.18-3.51a3.26,3.26,0,0,0-3.28,3.39,3.24,3.24,0,0,0,3.39,3.4m1.71-3.94h-3.64a1.77,1.77,0,0,1,1.81-1.7,1.74,1.74,0,0,1,1.83,1.7M169,9.53V5a1.86,1.86,0,0,0-2.09-2.08,3.1,3.1,0,0,0-2.29,1V3.06h-1.41V9.53h1.41V5a2.2,2.2,0,0,1,1.66-.85c.79,0,1.32.32,1.32,1.33v4Zm3.72.16a1.93,1.93,0,0,0,1.31-.41l-.33-1.07a.89.89,0,0,1-.62.24c-.4,0-.61-.34-.61-.78V4.28h1.31V3.06H172.5V1.29h-1.41V3.06H170V4.28h1.07V8a1.49,1.49,0,0,0,1.66,1.67" transform="translate(0 0)"/></g></svg>
