<svg enable-background="new 0 0 160 160" viewBox="0 0 160 160" xmlns="http://www.w3.org/2000/svg"><path d="m121.5 12.1 15.3 57c.8 3.1.4 6.1-1.2 8.9s-4 4.7-7.1 5.5l-91.2 24.4c-3.1.8-6.1.4-9-1.2-2.8-1.6-4.7-4-5.5-7.2l-18.3-68.3c-.8-3.1-.4-6.1 1.2-8.9s4-4.7 7.2-5.5l34.1-9.2 14.5 8.4 45.6-12.2c3.1-.8 6.1-.4 8.9 1.2s4.7 4 5.5 7.1z" fill="#fff" stroke="#ccc" stroke-miterlimit="10" stroke-width="5"/><g fill="#b3b3b3"><path d="m32.1 36.9h68v8h-68z" transform="matrix(.9659 -.2588 .2588 .9659 -8.3324 18.5014)"/><path d="m36.2 51.8h72v8h-72z" transform="matrix(.9659 -.2588 .2588 .9659 -11.9915 20.5822)"/><path d="m40.9 71.4h40v8h-40z" transform="matrix(.9659 -.2588 .2588 .9659 -17.4488 18.3217)"/></g><path d="m50.2 159.1c-4.6 0-8.6-1.7-11.9-4.9-3.2-3.2-4.9-7.3-4.9-11.9v-70.7c0-4.5 1.7-8.6 4.9-11.9 3.3-3.3 7.3-4.9 11.9-4.9h37.5l11.8 11.8h45.1c4.5 0 8.6 1.7 11.9 4.9 3.3 3.3 4.9 7.3 4.9 11.9v59c0 4.5-1.7 8.6-4.9 11.9-3.2 3.2-7.3 4.9-11.9 4.9h-94.4z" fill="none" stroke="#fff" stroke-miterlimit="10" stroke-width="5"/><path d="m156.3 83.4v59c0 3.2-1.1 6-3.5 8.3-2.3 2.3-5.1 3.5-8.3 3.5h-94.3c-3.2 0-6-1.2-8.3-3.5s-3.5-5.1-3.5-8.3v-70.8c0-3.2 1.2-6 3.5-8.3s5.1-3.5 8.3-3.5h35.4l11.8 11.8h47.2c3.2 0 6 1.2 8.3 3.5 2.3 2.2 3.4 5 3.4 8.3z" fill="#fff" stroke="#ccc" stroke-miterlimit="10" stroke-width="5"/><path d="m61.3 92.8h68v8h-68z" fill="#b3b3b3"/><path d="m61.3 108.8h72v8h-72z" fill="#b3b3b3"/><path d="m61.3 124.8h40v8h-40z" fill="#b3b3b3"/></svg>