<svg id="Layer_1" data-name="Layer 1" xmlns="http://www.w3.org/2000/svg" viewBox="0 0 160 160"><defs><style>.cls-1{fill:#727272;}.cls-2{fill:#ccc;}</style></defs><rect class="cls-1" y="79" width="160" height="2"/><rect class="cls-2" x="158" y="44" width="2" height="8"/><polygon class="cls-2" points="158 62 151.47 62 151.47 64 158 64 160 64 160 62 160 56 158 56 158 62"/><rect class="cls-2" x="158" y="32" width="2" height="8"/><rect class="cls-2" x="158" y="8" width="2" height="8"/><rect class="cls-2" x="158" y="20" width="2" height="8"/><rect class="cls-2" x="158" width="2" height="4"/><rect class="cls-2" y="32" width="2" height="8"/><rect class="cls-2" y="44" width="2" height="8"/><polygon class="cls-2" points="2 56 0 56 0 62 0 64 2 64 8.53 64 8.53 62 2 62 2 56"/><rect class="cls-2" y="20" width="2" height="8"/><rect class="cls-2" y="8" width="2" height="8"/><rect class="cls-2" width="2" height="4"/><rect class="cls-2" x="36.27" y="62" width="8.53" height="2"/><rect class="cls-2" x="49.07" y="62" width="8.53" height="2"/><rect class="cls-2" x="10.67" y="62" width="8.53" height="2"/><rect class="cls-2" x="23.47" y="62" width="8.53" height="2"/><rect class="cls-2" x="61.87" y="62" width="8.53" height="2"/><rect class="cls-2" x="74.67" y="62" width="8.53" height="2"/><rect class="cls-2" x="87.47" y="62" width="8.53" height="2"/><rect class="cls-2" x="100.27" y="62" width="8.53" height="2"/><rect class="cls-2" x="113.07" y="62" width="8.53" height="2"/><rect class="cls-2" x="125.87" y="62" width="8.53" height="2"/><rect class="cls-2" x="138.67" y="62" width="8.53" height="2"/><rect class="cls-2" y="108" width="2" height="8"/><polygon class="cls-2" points="2 98 8.53 98 8.53 96 2 96 0 96 0 98 0 104 2 104 2 98"/><rect class="cls-2" y="120" width="2" height="8"/><rect class="cls-2" y="144" width="2" height="8"/><rect class="cls-2" y="132" width="2" height="8"/><rect class="cls-2" y="156" width="2" height="4"/><rect class="cls-2" x="158" y="120" width="2" height="8"/><rect class="cls-2" x="158" y="108" width="2" height="8"/><polygon class="cls-2" points="158 104 160 104 160 98 160 96 158 96 151.47 96 151.47 98 158 98 158 104"/><rect class="cls-2" x="158" y="132" width="2" height="8"/><rect class="cls-2" x="158" y="144" width="2" height="8"/><rect class="cls-2" x="158" y="156" width="2" height="4"/><rect class="cls-2" x="115.2" y="96" width="8.53" height="2"/><rect class="cls-2" x="102.4" y="96" width="8.53" height="2"/><rect class="cls-2" x="140.8" y="96" width="8.53" height="2"/><rect class="cls-2" x="128" y="96" width="8.53" height="2"/><rect class="cls-2" x="89.6" y="96" width="8.53" height="2"/><rect class="cls-2" x="76.8" y="96" width="8.53" height="2"/><rect class="cls-2" x="64" y="96" width="8.53" height="2"/><rect class="cls-2" x="51.2" y="96" width="8.53" height="2"/><rect class="cls-2" x="38.4" y="96" width="8.53" height="2"/><rect class="cls-2" x="25.6" y="96" width="8.53" height="2"/><rect class="cls-2" x="12.8" y="96" width="8.53" height="2"/></svg>