<svg xmlns="http://www.w3.org/2000/svg" xml:space="preserve" id="Layer_1" x="0" y="0" version="1.1" viewBox="0 0 160 160">
  <style>
    .st0{fill:#b3b3b3}.st1{fill:#6195bc}
  </style>
  <path d="M84 8h76v48H84V8z" class="st0"/>
  <path d="M84 68h66.6v8H84v-8zm0 16h40.4v8H84v-8z" class="st1"/>
  <path d="M84 104h61.9v8H84v-8zm0 16h66.6v8H84v-8zm0 16h33.3v8H84v-8zM.4 8h76v48H.4V8z" class="st0"/>
  <path d="M.4 68H67v8H.4v-8zm0 16h40.4v8H.4v-8z" class="st1"/>
  <path d="M.4 104h61.9v8H.4v-8zm0 16H67v8H.4v-8z" class="st0"/>
</svg>
