<svg id="Layer_1" data-name="Layer 1" xmlns="http://www.w3.org/2000/svg" viewBox="0 0 160 160"><defs><style>.cls-1{fill:#727272;}.cls-2{fill:#ccc;}</style></defs><rect class="cls-1" y="32" width="160" height="8"/><rect class="cls-1" y="48" width="112" height="8"/><rect class="cls-2" y="88" width="2" height="8"/><polygon class="cls-2" points="2 78 8.53 78 8.53 76 2 76 0 76 0 78 0 84 2 84 2 78"/><rect class="cls-2" y="100" width="2" height="8"/><rect class="cls-2" y="124" width="2" height="8"/><rect class="cls-2" y="112" width="2" height="8"/><rect class="cls-2" y="136" width="2" height="4"/><rect class="cls-2" x="158" y="100" width="2" height="8"/><rect class="cls-2" x="158" y="88" width="2" height="8"/><polygon class="cls-2" points="158 84 160 84 160 78 160 76 158 76 151.47 76 151.47 78 158 78 158 84"/><rect class="cls-2" x="158" y="112" width="2" height="8"/><rect class="cls-2" x="158" y="124" width="2" height="8"/><rect class="cls-2" x="158" y="136" width="2" height="4"/><rect class="cls-2" x="115.2" y="76" width="8.53" height="2"/><rect class="cls-2" x="102.4" y="76" width="8.53" height="2"/><rect class="cls-2" x="140.8" y="76" width="8.53" height="2"/><rect class="cls-2" x="128" y="76" width="8.53" height="2"/><rect class="cls-2" x="89.6" y="76" width="8.53" height="2"/><rect class="cls-2" x="76.8" y="76" width="8.53" height="2"/><rect class="cls-2" x="64" y="76" width="8.53" height="2"/><rect class="cls-2" x="51.2" y="76" width="8.53" height="2"/><rect class="cls-2" x="38.4" y="76" width="8.53" height="2"/><rect class="cls-2" x="25.6" y="76" width="8.53" height="2"/><rect class="cls-2" x="12.8" y="76" width="8.53" height="2"/></svg>