<svg id="Layer_1" data-name="Layer 1" xmlns="http://www.w3.org/2000/svg" viewBox="0 0 160 160"><defs><style>.cls-1{fill:#727272;}.cls-2{fill:#b3b3b3;}</style></defs><polygon class="cls-1" points="116 114 76 74 76 134 92.42 125.79 102.42 145.79 109.58 142.21 99.58 122.21 116 114"/><path class="cls-2" d="M56,80a24,24,0,1,1,44.49,12.49l5.77,5.77A32,32,0,1,0,72,111v-8.37A24,24,0,0,1,56,80Z"/><path class="cls-2" d="M36,80a44,44,0,1,1,78.83,26.83l5.7,5.7A52,52,0,1,0,72,131.38v-8.12A44.07,44.07,0,0,1,36,80Z"/></svg>