<svg enable-background="new 0 0 160 160" viewBox="0 0 160 160" xmlns="http://www.w3.org/2000/svg"><g fill="#b3b3b3"><path d="m0 8h72v8h-72z"/><path d="m0 24h67.8v8h-67.8z"/><path d="m0 40h72v8h-72z"/><path d="m0 56h68v8h-68z"/><path d="m0 72h72v8h-72z"/><path d="m0 88h44v8h-44z"/></g><path d="m82.2 8h72v144h-72z" fill="none" stroke="#ccc" stroke-miterlimit="10"/><path d="m82.2 8h72v48h-72z" fill="#b3b3b3"/><path d="m90.2 68h56v8h-56z" fill="#6195bc"/><path d="m90.2 84h34v8h-34z" fill="#6195bc"/><path d="m90.2 104h52v8h-52z" fill="#b3b3b3"/><path d="m90.2 120h56v8h-56z" fill="#b3b3b3"/><path d="m90.2 136h28v8h-28z" fill="#b3b3b3"/></svg>