<svg id="Layer_1" data-name="Layer 1" xmlns="http://www.w3.org/2000/svg" viewBox="0 0 160 160"><defs><style>.cls-1{fill:#ebebeb;}.cls-2{fill:#fff;}.cls-3{fill:#b3b3b3;}.cls-4{fill:#6195bc;}.cls-5{fill:#ccc;}.cls-6{fill:#b1cddd;}</style></defs><rect class="cls-1" width="160" height="160"/><rect class="cls-2" x="44" y="56" width="72" height="96"/><rect class="cls-3" x="44" y="8" width="72" height="48"/><rect class="cls-4" x="52" y="68" width="56" height="8"/><rect class="cls-4" x="52" y="84" width="34" height="8"/><rect class="cls-3" x="52" y="104" width="52" height="8"/><rect class="cls-3" x="52" y="120" width="56" height="8"/><rect class="cls-3" x="52" y="136" width="28" height="8"/><rect class="cls-2" x="124" y="56" width="36" height="96"/><rect class="cls-5" x="124" y="8" width="36" height="48"/><rect class="cls-6" x="132" y="68" width="28" height="8"/><rect class="cls-6" x="132" y="84" width="28" height="8"/><rect class="cls-5" x="132" y="104" width="28" height="8"/><rect class="cls-5" x="132" y="120" width="28" height="8"/><rect class="cls-5" x="132" y="136" width="28" height="8"/><rect class="cls-2" y="56" width="36" height="96"/><rect class="cls-5" y="8" width="36" height="48"/><rect class="cls-6" y="68" width="28" height="8"/><rect class="cls-6" y="84" width="6" height="8"/><rect class="cls-5" y="104" width="24" height="8"/><rect class="cls-5" y="120" width="28" height="8"/></svg>