<svg xmlns="http://www.w3.org/2000/svg" viewBox="0 0 206.9 30.9">
  <defs>
    <clipPath id="a">
      <path fill="none" d="M0 0h206.9v30.9H0z"/>
    </clipPath>
  </defs>
  <path fill="#fff" d="M0 0h49.3v30.4H0z"/>
  <path fill="#0065bd" d="m6.9 1.4 17.6 10.4L42.2 1.4H6.9zm0 27.6 17.6-10.4L42.2 29H6.9zM1.4 4.5v21.4l17.5-10.7L1.4 4.5zm46.5 0v21.4L30.3 15.2 47.9 4.5z"/>
  <g clip-path="url(#a)">
    <path fill="#858b91" d="M203 26.3c-1.4 0-2.3-1-2.3-2.6s.9-2.7 2.3-2.7c.8 0 1.6.5 2 1.1v3.2c-.4.5-1.2 1-2 1m3.7 1.4v-8H205v1.1a3.1 3.1 0 0 0-2.6-1.3c-2 0-3.5 1.6-3.5 4.2s1.5 4.2 3.5 4.2c1 0 2-.5 2.6-1.3v1h1.7Zm-15 0v-1.1c.5.8 1.5 1.2 2.5 1.2 2 0 3.5-1.5 3.5-4.1s-1.5-4.2-3.5-4.2c-1 0-2 .4-2.6 1.3v-4.1H190v11h1.7Zm0-2.4V22c.3-.6 1.2-1 2-1 1.4 0 2.2 1 2.2 2.6s-.8 2.6-2.2 2.6c-.8 0-1.7-.4-2-1m-4.4 2.6c.8 0 1.3-.3 1.6-.6l-.4-1.3c-.2.2-.5.3-.8.3-.5 0-.8-.4-.8-1v-8.6h-1.7v9.1c0 1.3.7 2 2 2m-6.4-4h-4l2-5.2 2 5.2Zm3.5 3.9-4.3-11h-2.4l-4.3 11h2.1l.8-2.2h5l.9 2.1h2.2Zm-11.7-4.8h-4v1.5h4V23Zm-5.6 4.8V22c0-1.6-.9-2.5-2.6-2.5-1.3 0-2.3.7-2.8 1.3v-4.1H160v11h1.7V22c.4-.5 1.2-1 2-1 1 0 1.6.3 1.6 1.6v5h1.8Zm-17.2-1.4c-1.4 0-2.3-1-2.3-2.6s.9-2.7 2.3-2.7c.8 0 1.6.5 2 1.1v3.2c-.4.5-1.2 1-2 1m3.7 1.4v-8h-1.7v1.1a3.1 3.1 0 0 0-2.5-1.3c-2 0-3.6 1.6-3.6 4.2s1.5 4.2 3.6 4.2c1 0 1.9-.5 2.5-1.3v1h1.7Zm-9.4 0V22c0-1.7-.8-2.6-2.5-2.6-1.3 0-2.3.7-2.8 1.3v-1H137v7.9h1.8V22c.4-.5 1.1-1 2-1 1 0 1.6.3 1.6 1.6v5h1.7Zm-16.2.2c2.2 0 3.3-1.1 3.3-2.5 0-3.2-4.8-2.1-4.8-3.5 0-.6.6-1 1.5-1 1 0 1.9.4 2.3 1l.8-1.3a4.6 4.6 0 0 0-3.1-1c-2 0-3.1 1-3.1 2.3 0 3 4.8 2 4.8 3.5 0 .6-.6 1-1.6 1s-2.1-.5-2.7-1l-.8 1.2c.8.8 2 1.2 3.4 1.2m-8.6-1.5c-1.4 0-2.3-1-2.3-2.6s1-2.7 2.3-2.7c.8 0 1.7.5 2 1.1v3.1c-.3.6-1.2 1.1-2 1.1m3.8 1.3v-7.9h-1.8v1.1a3.1 3.1 0 0 0-2.5-1.3c-2 0-3.5 1.6-3.5 4.2s1.5 4.1 3.5 4.1c1 0 2-.4 2.5-1.2v1h1.8Zm-10 .2c.9 0 1.4-.2 1.7-.5l-.4-1.3a1 1 0 0 1-.8.3c-.5 0-.8-.4-.8-1v-4.1h1.7v-1.5h-1.7v-2.2h-1.7v2.2h-1.3v1.5h1.3v4.6c0 1.3.7 2 2 2m-4.7 0c.8 0 1.3-.2 1.6-.5l-.4-1.3c0 .2-.4.3-.7.3-.5 0-.8-.4-.8-1v-8.6h-1.7v9c0 1.4.7 2.1 2 2.1m-7.8-1.5c-1.4 0-2.3-1-2.3-2.6s.9-2.7 2.3-2.7c.8 0 1.6.5 2 1.1v3.1c-.4.6-1.2 1.1-2 1.1m3.7 1.3v-7.9h-1.7v1.1a3.1 3.1 0 0 0-2.6-1.3c-2 0-3.5 1.6-3.5 4.2s1.5 4.1 3.5 4.1c1 0 2-.4 2.6-1.2v1h1.7Zm-9.4 0V22c0-1.6-.9-2.5-2.6-2.5a4 4 0 0 0-2.8 1.3v-4.1h-1.7v11h1.7V22c.4-.5 1.2-1 2-1 1 0 1.7.3 1.7 1.6v5h1.7Zm-13-1.5c-1.3 0-2.2-1-2.2-2.5S80.6 21 82 21c.8 0 1.6.5 2 1v3c-.4.6-1.2 1.1-2 1.1m-.3 4.8c1.9 0 4-.8 4-3.7v-7.5H84v1.1a3.1 3.1 0 0 0-2.5-1.3c-2.1 0-3.6 1.5-3.6 4s1.5 4.2 3.6 4.2c1 0 1.9-.6 2.5-1.4v1c0 1.6-1.2 2.2-2.3 2.2-1 0-2-.3-2.6-1l-.8 1.2c1 .9 2 1.2 3.4 1.2m-9.2-4.6c-1.3 0-2.2-1-2.2-2.6s.9-2.7 2.2-2.7c.8 0 1.7.5 2 1.1v3.1c-.3.6-1.2 1.1-2 1.1m3.8 1.3v-7.9h-1.7v1.1a3.1 3.1 0 0 0-2.6-1.3c-2 0-3.5 1.6-3.5 4.2s1.5 4.1 3.5 4.1c1 0 2-.4 2.6-1.2v1h1.7Zm-9.4-7.9h-1.7v8h1.7v-8Zm-.8-1a1 1 0 1 0 0-2.1 1 1 0 0 0 0 2.1M59.7 22H57v-3.5h2.7c1 0 1.8.6 1.8 1.7s-.7 1.8-1.8 1.8m4 5.8-2.8-4.4a3 3 0 0 0 2.6-3.2c0-2-1.4-3.4-3.6-3.4h-4.8v11h2v-4.1h1.8l2.5 4h2.2Z"/>
    <path fill="#333e48" d="M205.3 13.3c.8 0 1.3-.2 1.6-.5l-.4-1.3a1 1 0 0 1-.7.3c-.5 0-.8-.4-.8-1V6.7h1.6V5.2H205V3h-1.7v2.2H202v1.5h1.3v4.6c0 1.3.7 2 2 2m-4.5-.2V7.5c0-1.6-1-2.5-2.6-2.5-1.3 0-2.3.6-2.8 1.3V5.2h-1.8v8h1.8V7.5c.4-.6 1.1-1 2-1 1 0 1.6.3 1.6 1.6v5h1.8Zm-10.5-4.6H186a2 2 0 0 1 2.2-2.1c1.6 0 2.2 1.1 2.2 2m-2 5c1.2 0 2.4-.5 3.2-1.3l-.8-1.1c-.6.6-1.5.9-2.3.9-1.5 0-2.4-1-2.5-2.2h6.1v-.4c0-2.5-1.5-4.3-3.9-4.3s-4 1.8-4 4.1a4 4 0 0 0 4.1 4.2m-5.8-.2V7.4c0-1.6-.8-2.4-2.3-2.4-1.2 0-2.2.7-2.7 1.4-.3-.8-1-1.4-2.2-1.4s-2.2.8-2.6 1.3V5.2H171v8h1.7V7.5c.4-.6 1.1-1 1.9-1 1 0 1.3.5 1.3 1.3V13h1.7V7.6c.4-.6 1-1 1.8-1 1 0 1.4.5 1.4 1.3v5.2h1.7Zm-13.6 0V7.5c0-1.6-.9-2.5-2.6-2.5-1.2 0-2.3.6-2.8 1.3V5.2h-1.7v8h1.7V7.5c.4-.6 1.2-1 2-1 1 0 1.7.3 1.7 1.6v5h1.7Zm-11 0V7.7c.4-.6 1.3-1 2-1h.6V5c-1 0-2 .6-2.6 1.3V5.2h-1.7v8h1.7Zm-5-4.6h-4.5c0-1 .8-2.1 2.2-2.1 1.6 0 2.2 1.1 2.3 2m-2.1 4.9c1.2 0 2.4-.4 3.2-1.2l-.8-1.1c-.6.6-1.5.9-2.3.9-1.5 0-2.3-1-2.5-2.2h6.1v-.4c0-2.5-1.5-4.4-3.9-4.4s-4 1.9-4 4.2a4 4 0 0 0 4.2 4.2m-7.8-.2 3.3-8h-1.9l-2.3 6-2.3-6h-1.9l3.3 8h1.8Zm-9.5-1.3c-1.4 0-2.3-1.3-2.3-2.7s.9-2.6 2.3-2.6 2.3 1.2 2.3 2.6-.8 2.7-2.3 2.7m0 1.5c2.6 0 4.1-2 4.1-4.2s-1.5-4.2-4-4.2-4.1 2-4.1 4.2 1.5 4.2 4 4.2m-10.5 0c3.5 0 5.5-2.4 5.5-6.1h-6v1.7h4c-.4 1.4-1.4 2.7-3.3 2.7-2.2 0-3.8-1.7-3.8-4s1.6-4 3.8-4c1.2 0 2.3.7 2.9 1.5l1.5-.9a5.1 5.1 0 0 0-4.4-2.3c-3.2 0-5.7 2.3-5.7 5.7s2.5 5.7 5.5 5.7m-11.3-.2V7.5c0-1.6-.8-2.5-2.5-2.5-1.3 0-2.3.6-2.8 1.2v-4h-1.7v11h1.7V7.5c.4-.6 1.1-1 2-1 1 0 1.6.3 1.6 1.5v5h1.8Zm-12 .2c2.1 0 3.3-1 3.3-2.5 0-3.2-4.8-2-4.8-3.5 0-.6.6-1 1.5-1 1 0 1.8.4 2.3 1l.7-1.3a4.6 4.6 0 0 0-3-1c-2 0-3.2 1-3.2 2.3 0 3.1 4.8 2 4.8 3.5 0 .7-.5 1.1-1.5 1.1s-2.2-.5-2.7-1.1l-.8 1.2c.8.8 2 1.3 3.4 1.3m-5-8.2H93v8h1.7V5Zm-.8-1a1 1 0 1 0 0-2 1 1 0 0 0 0 2m-3.6 9.2c.8 0 1.3-.2 1.6-.5l-.4-1.3a1 1 0 0 1-.8.3c-.5 0-.8-.5-.8-1V6.7h1.7V5.2h-1.7V3h-1.7v2.2h-1.3v1.5H88v4.6c0 1.3.7 2 2 2m-5.5 0c.8 0 1.3-.2 1.6-.5l-.4-1.3a1 1 0 0 1-.7.3c-.5 0-.8-.4-.8-1V6.7h1.6V5.2h-1.6V3h-1.7v2.2h-1.4v1.5h1.4v4.6c0 1.3.7 2 2 2m-8.1-1.5c-1.5 0-2.3-1.2-2.3-2.7s.8-2.6 2.3-2.6 2.2 1.2 2.2 2.6-.8 2.7-2.2 2.7m0 1.5c2.5 0 4-1.9 4-4.2S79 5 76.5 5s-4.1 1.9-4.1 4 1.5 4.2 4 4.2m-7.8 0c1.5 0 2.5-.7 3-1.4l-1.1-1c-.5.6-1 .9-1.9.9-1.4 0-2.4-1.1-2.4-2.7s1-2.6 2.4-2.6c.8 0 1.4.3 1.9 1l1.1-1.1c-.5-.8-1.5-1.4-3-1.4-2.4 0-4.1 1.7-4.1 4.1s1.7 4.2 4 4.2m-9.5 0c3 0 4.3-1.6 4.3-3.4 0-4-6.4-2.8-6.4-4.9 0-.8.7-1.3 1.8-1.3S61 4 62 5l1-1.5c-1-1-2.3-1.5-4-1.5-2.4 0-4 1.4-4 3.2 0 4 6.4 2.6 6.4 4.9 0 .7-.6 1.5-2.2 1.5s-2.7-.7-3.5-1.5l-1 1.5a6 6 0 0 0 4.4 1.7"/>
  </g>
</svg>
