<?xml version="1.0" encoding="utf-8"?>
<svg focusable="false" version="1.1" id="sg-logo" xmlns="http://www.w3.org/2000/svg" xmlns:xlink="http://www.w3.org/1999/xlink" x="0px" y="0px"
 viewBox="0 0 357 67" xml:space="preserve">
    <defs>
        <style>
            .cls-1 {
                fill: none;
                stroke: #000;
                stroke-width: 1.46px;
            }

            .cls-2 {
                fill: #000;
            }

            .cls-3 {
                fill: #000;
            }

            .cls-4 {
                fill: #8e979c;
            }
        </style>
    </defs>
    <switch>
        <g>
        <line class="cls-1" x1="115.7" y1="61.08" x2="115.7"/>
        <polygon class="cls-2" points="12.19 0 51.5 22.89 90.82 0 12.19 0 12.19 0"/>
        <polygon class="cls-2" points="12.19 61.08 51.5 38.19 90.82 61.08 12.19 61.08 12.19 61.08"/>
        <polygon class="cls-2" points="0 6.94 0 54.16 39.09 30.55 0 6.94 0 6.94"/>
        <polygon class="cls-2" points="103.53 6.94 103.53 54.16 64.44 30.55 103.53 6.94 103.53 6.94"/>
        <path class="cls-3" d="M132.84,66c2.92,0,6.14-1.16,6.14-5.44V49.28h-2.6v1.65A4.71,4.71,0,0,0,132.54,49c-3.1,0-5.3,2.24-5.3,6.11s2.25,6.11,5.3,6.11a4.82,4.82,0,0,0,3.84-2v1.35c0,2.54-1.83,3.32-3.54,3.32A4.74,4.74,0,0,1,129,62.36l-1.21,1.87a6.87,6.87,0,0,0,5,1.77h0Zm0.47-7.11c-2.08,0-3.39-1.5-3.39-3.79s1.31-3.82,3.39-3.82a4,4,0,0,1,3.07,1.58v4.46a4,4,0,0,1-3.07,1.58h0Zm14.37,2.58a6,6,0,0,0,6.14-6.25,6.14,6.14,0,1,0-12.29,0,6,6,0,0,0,6.14,6.25h0Zm0-2.29c-2.2,0-3.44-1.85-3.44-4s1.24-3.94,3.44-3.94,3.44,1.85,3.44,3.94-1.21,4-3.44,4h0Zm14.33,2,4.88-11.89h-2.77l-3.49,8.91-3.49-8.91h-2.8l4.88,11.89H162Zm6.6,0.27a1.77,1.77,0,0,0,1.73-1.75,1.73,1.73,0,0,0-3.47,0,1.77,1.77,0,0,0,1.73,1.75h0Zm9,0c3.22,0,5-1.6,5-3.72,0-4.73-7.23-3.15-7.23-5.24,0-.84.84-1.48,2.2-1.48a4.89,4.89,0,0,1,3.54,1.43l1.09-1.82A6.86,6.86,0,0,0,177.6,49c-3,0-4.71,1.65-4.71,3.59,0,4.58,7.23,2.9,7.23,5.24,0,0.94-.82,1.58-2.38,1.58a6.17,6.17,0,0,1-4-1.65l-1.19,1.85a7.28,7.28,0,0,0,5.13,1.87h0Zm12.88,0a5.41,5.41,0,0,0,4.58-2.12l-1.71-1.6a3.22,3.22,0,0,1-2.75,1.43c-2.16,0-3.62-1.65-3.62-4a3.61,3.61,0,0,1,3.62-3.94,3.18,3.18,0,0,1,2.75,1.38l1.71-1.55A5.34,5.34,0,0,0,190.52,49a6.24,6.24,0,0,0,0,12.48h0Zm11.88,0a6,6,0,0,0,6.14-6.25,6.14,6.14,0,1,0-12.29,0,6,6,0,0,0,6.14,6.25h0Zm0-2.29c-2.2,0-3.44-1.85-3.44-4s1.24-3.94,3.44-3.94,3.44,1.85,3.44,3.94-1.21,4-3.44,4h0Zm12.27,2.29a3.54,3.54,0,0,0,2.43-.76l-0.62-2a1.62,1.62,0,0,1-1.14.44,1.22,1.22,0,0,1-1.14-1.43V51.52h2.43V49.28h-2.43V46h-2.6v3.25h-2v2.24h2v6.87a2.75,2.75,0,0,0,3.07,3.08h0Z"/>
        <path class="cls-4" d="M140.84,38.93l-4.06-6.45a4.63,4.63,0,0,0,3.94-4.82c0-3.05-2.15-5.15-5.42-5.15H128V38.93h2.9V32.8h2.9l3.64,6.13h3.37Zm-5.92-8.67h-4V25h4a2.62,2.62,0,1,1,0,5.22h0Zm9.63-4.68a1.6,1.6,0,1,0-1.61-1.6,1.6,1.6,0,0,0,1.61,1.6h0Zm1.29,13.34V27h-2.6V38.93h2.6Zm14.13,0V27h-2.6v1.65a4.71,4.71,0,0,0-3.84-1.94c-3.07,0-5.3,2.39-5.3,6.23s2.25,6.25,5.3,6.25a4.82,4.82,0,0,0,3.84-1.92v1.62H160Zm-5.67-2c-2.08,0-3.39-1.65-3.39-4S152.21,29,154.29,29a3.89,3.89,0,0,1,3.07,1.6v4.7a3.89,3.89,0,0,1-3.07,1.6h0ZM168,43.76c2.92,0,6.14-1.16,6.14-5.44V27h-2.6v1.65a4.71,4.71,0,0,0-3.84-1.94c-3.1,0-5.3,2.24-5.3,6.1s2.25,6.11,5.3,6.11a4.82,4.82,0,0,0,3.84-2v1.35c0,2.54-1.83,3.32-3.54,3.32a4.74,4.74,0,0,1-3.81-1.53L163,42a6.87,6.87,0,0,0,5,1.77h0Zm0.47-7.11c-2.08,0-3.39-1.5-3.39-3.79S166.42,29,168.5,29a4,4,0,0,1,3.07,1.58v4.46a4,4,0,0,1-3.07,1.58h0ZM188,38.93V30.51c0-2.44-1.29-3.77-3.86-3.77a5.66,5.66,0,0,0-4.21,1.9V22.51h-2.6V38.93h2.6V30.61A4,4,0,0,1,183,29c1.46,0,2.4.54,2.4,2.41v7.48H188Zm14.21,0V27h-2.6v1.65a4.71,4.71,0,0,0-3.84-1.94c-3.07,0-5.3,2.39-5.3,6.23s2.25,6.25,5.3,6.25a4.82,4.82,0,0,0,3.84-1.92v1.62h2.6Zm-5.67-2c-2.08,0-3.39-1.65-3.39-4S194.42,29,196.5,29a3.89,3.89,0,0,1,3.07,1.6v4.7a3.89,3.89,0,0,1-3.07,1.6h0Zm11.84,2.29a3.56,3.56,0,0,0,2.45-.76l-0.62-2a1.69,1.69,0,0,1-1.16.44,1.22,1.22,0,0,1-1.14-1.43v-13h-2.6V36.15a2.76,2.76,0,0,0,3.07,3.08h0Zm7.14,0a3.54,3.54,0,0,0,2.43-.76l-0.62-2a1.62,1.62,0,0,1-1.14.44A1.22,1.22,0,0,1,215,35.51V29.28h2.43V27H215V23.79h-2.6V27h-2v2.24h2v6.87a2.75,2.75,0,0,0,3.07,3.08h0Zm14.91-.3V27h-2.6v1.65a4.71,4.71,0,0,0-3.84-1.94c-3.07,0-5.3,2.39-5.3,6.23s2.25,6.25,5.3,6.25a4.82,4.82,0,0,0,3.84-1.92v1.62h2.6Zm-5.67-2c-2.08,0-3.39-1.65-3.39-4S222.64,29,224.72,29a3.89,3.89,0,0,1,3.07,1.6v4.7a3.89,3.89,0,0,1-3.07,1.6h0Zm13,2.29c3.22,0,5-1.6,5-3.72,0-4.73-7.23-3.15-7.23-5.24,0-.84.84-1.48,2.2-1.48a4.9,4.9,0,0,1,3.54,1.43l1.09-1.82a6.86,6.86,0,0,0-4.63-1.65c-3,0-4.71,1.65-4.71,3.59,0,4.58,7.23,2.9,7.23,5.24,0,0.94-.82,1.58-2.38,1.58a6.16,6.16,0,0,1-4-1.65l-1.19,1.85a7.27,7.27,0,0,0,5.13,1.87h0Zm24.42-.3V30.56c0-2.44-1.29-3.82-3.86-3.82a5.72,5.72,0,0,0-4.24,1.9V27h-2.6V38.93H254V30.61A4.08,4.08,0,0,1,257.11,29c1.46,0,2.43.59,2.43,2.46v7.43h2.6Zm14.17,0V27h-2.6v1.65a4.71,4.71,0,0,0-3.84-1.94c-3.07,0-5.3,2.39-5.3,6.23s2.25,6.25,5.3,6.25a4.82,4.82,0,0,0,3.84-1.92v1.62h2.6Zm-5.67-2c-2.08,0-3.39-1.65-3.39-4S268.55,29,270.63,29a3.89,3.89,0,0,1,3.07,1.6v4.7a3.89,3.89,0,0,1-3.07,1.6h0Zm25.88,2V30.51c0-2.44-1.29-3.77-3.86-3.77a5.66,5.66,0,0,0-4.21,1.9V22.51h-2.6V38.93h2.6V30.61A4,4,0,0,1,291.51,29c1.46,0,2.4.54,2.4,2.41v7.48h2.6Zm8.56-4.85V31.87h-5.94v2.22h5.94Zm17.54,4.85-6.49-16.42h-3.62L306,38.93h3.29l1.21-3.18h7.58l1.21,3.18h3.29Zm-5.33-5.71h-5.94l3-7.83,3,7.83h0Zm9.81,6a3.56,3.56,0,0,0,2.45-.76l-0.62-2a1.69,1.69,0,0,1-1.16.44,1.22,1.22,0,0,1-1.14-1.43v-13H324V36.15a2.76,2.76,0,0,0,3.07,3.08h0Zm6.59-3.86V30.64a3.94,3.94,0,0,1,3.1-1.6c2.06,0,3.37,1.65,3.37,3.94s-1.31,4-3.37,4a3.92,3.92,0,0,1-3.1-1.58h0Zm0,3.57V37.31a4.86,4.86,0,0,0,3.84,1.92c3.07,0,5.33-2.31,5.33-6.25s-2.23-6.23-5.33-6.23a4.74,4.74,0,0,0-3.84,1.94V22.51h-2.6V38.93h2.6Zm22.74,0V27h-2.6v1.65A4.71,4.71,0,0,0,350,26.75c-3.07,0-5.3,2.39-5.3,6.23s2.25,6.25,5.3,6.25a4.82,4.82,0,0,0,3.84-1.92v1.62h2.6Zm-5.67-2c-2.08,0-3.39-1.65-3.39-4S348.68,29,350.76,29a3.89,3.89,0,0,1,3.07,1.6v4.7a3.89,3.89,0,0,1-3.07,1.6h0Z"/>
        <path class="cls-3" d="M133.7,17c4.43,0,6.39-2.36,6.39-5.1,0-6.11-9.61-4.21-9.61-7.29,0-1.21,1.09-2,2.77-2a6.76,6.76,0,0,1,4.8,1.9l1.64-2.14A8.58,8.58,0,0,0,133.53,0c-3.64,0-6,2.09-6,4.82,0,6,9.61,3.89,9.61,7.34,0,1.11-.92,2.26-3.29,2.26a7.11,7.11,0,0,1-5.23-2.29L127,14.38A9.06,9.06,0,0,0,133.7,17h0Zm14.4,0a5.4,5.4,0,0,0,4.58-2.12L151,13.27a3.22,3.22,0,0,1-2.75,1.43c-2.15,0-3.62-1.65-3.62-4a3.61,3.61,0,0,1,3.62-3.94A3.18,3.18,0,0,1,151,8.17l1.71-1.55A5.34,5.34,0,0,0,148.1,4.5a6,6,0,0,0-6.17,6.23A6,6,0,0,0,148.1,17h0ZM160,17a6,6,0,0,0,6.14-6.25,6.14,6.14,0,1,0-12.29,0A6,6,0,0,0,160,17h0Zm0-2.29c-2.2,0-3.44-1.85-3.44-4s1.24-3.94,3.44-3.94,3.44,1.85,3.44,3.94-1.21,4-3.44,4h0ZM172.25,17a3.54,3.54,0,0,0,2.43-.76l-0.62-2a1.62,1.62,0,0,1-1.14.44,1.22,1.22,0,0,1-1.14-1.43V7h2.43V4.8h-2.43V1.55h-2.6V4.8h-2V7h2v6.87A2.75,2.75,0,0,0,172.25,17h0Zm8.34,0a3.54,3.54,0,0,0,2.43-.76l-0.62-2a1.62,1.62,0,0,1-1.14.44,1.22,1.22,0,0,1-1.14-1.43V7h2.43V4.8h-2.43V1.55h-2.6V4.8h-2V7h2v6.87A2.75,2.75,0,0,0,180.59,17h0Zm5.55-13.64a1.6,1.6,0,1,0-1.61-1.6,1.6,1.6,0,0,0,1.61,1.6h0Zm1.29,13.34V4.8h-2.6V16.69h2.6Zm7.39,0.3c3.22,0,5-1.6,5-3.72,0-4.73-7.23-3.15-7.23-5.24,0-.84.84-1.48,2.2-1.48A4.89,4.89,0,0,1,198.31,8l1.09-1.82a6.86,6.86,0,0,0-4.63-1.65c-3,0-4.71,1.65-4.71,3.59,0,4.58,7.23,2.9,7.23,5.24,0,0.94-.82,1.58-2.38,1.58a6.17,6.17,0,0,1-4-1.65l-1.19,1.85A7.28,7.28,0,0,0,194.81,17h0Zm18.15-.3V8.27c0-2.44-1.29-3.77-3.86-3.77a5.66,5.66,0,0,0-4.21,1.9V0.27h-2.6V16.69h2.6V8.37A4,4,0,0,1,208,6.79c1.46,0,2.4.54,2.4,2.41v7.48H213ZM230.5,17c5.2,0,8.22-3.59,8.22-9.16h-9v2.54h5.87a4.77,4.77,0,0,1-4.83,4,5.65,5.65,0,0,1-5.7-5.93,5.63,5.63,0,0,1,5.7-5.93A5.34,5.34,0,0,1,235,4.75l2.35-1.35A7.74,7.74,0,0,0,230.75,0c-4.8,0-8.67,3.32-8.67,8.49A8.26,8.26,0,0,0,230.5,17h0Zm15.8,0a6,6,0,0,0,6.14-6.25,6.14,6.14,0,1,0-12.29,0A6,6,0,0,0,246.3,17h0Zm0-2.29c-2.2,0-3.44-1.85-3.44-4s1.24-3.94,3.44-3.94,3.44,1.85,3.44,3.94-1.21,4-3.44,4h0Zm14.33,2L265.52,4.8h-2.77l-3.49,8.91L255.76,4.8H253l4.88,11.89h2.8ZM272.28,17a7.1,7.1,0,0,0,4.85-1.75l-1.19-1.7a5,5,0,0,1-3.42,1.33,3.61,3.61,0,0,1-3.79-3.27H278V11c0-3.74-2.28-6.45-5.87-6.45A6,6,0,0,0,266,10.73,6,6,0,0,0,272.28,17h0Zm3.17-7.24h-6.74a3.26,3.26,0,0,1,3.34-3.13,3.21,3.21,0,0,1,3.39,3.13h0ZM283,16.69V8.59a4.09,4.09,0,0,1,3.1-1.6,3.61,3.61,0,0,1,.79.07V4.5a5.2,5.2,0,0,0-3.89,2V4.8h-2.6V16.69H283Zm16.52,0V8.32c0-2.44-1.29-3.82-3.86-3.82a5.72,5.72,0,0,0-4.24,1.9V4.8h-2.6V16.69h2.6V8.37a4.08,4.08,0,0,1,3.07-1.58c1.46,0,2.43.59,2.43,2.46v7.43h2.6Zm20.51,0V8.1c0-2.41-1.26-3.59-3.44-3.59a5.05,5.05,0,0,0-4.06,2.17,3.12,3.12,0,0,0-3.27-2.17,5.31,5.31,0,0,0-3.91,1.9V4.8h-2.6V16.69h2.6V8.37a3.68,3.68,0,0,1,2.77-1.58c1.41,0,2,.86,2,2.14v7.75h2.6V8.37a3.57,3.57,0,0,1,2.77-1.58,1.85,1.85,0,0,1,2,2.14v7.75h2.6Zm8.8,0.3a7.1,7.1,0,0,0,4.85-1.75l-1.19-1.7a5,5,0,0,1-3.42,1.33,3.61,3.61,0,0,1-3.79-3.27h9.21V11c0-3.74-2.28-6.45-5.87-6.45a6,6,0,0,0-6.07,6.23A6,6,0,0,0,328.86,17h0ZM332,9.75h-6.74a3.26,3.26,0,0,1,3.34-3.13A3.21,3.21,0,0,1,332,9.75h0Zm15.68,6.94V8.32c0-2.44-1.29-3.82-3.86-3.82a5.72,5.72,0,0,0-4.24,1.9V4.8H337V16.69h2.6V8.37a4.08,4.08,0,0,1,3.07-1.58c1.46,0,2.43.59,2.43,2.46v7.43h2.6Zm6.87,0.3a3.53,3.53,0,0,0,2.43-.76l-0.62-2a1.62,1.62,0,0,1-1.14.44,1.22,1.22,0,0,1-1.14-1.43V7h2.43V4.8H354.1V1.55h-2.6V4.8h-2V7h2v6.87A2.75,2.75,0,0,0,354.57,17h0Z"/>
        </g>
    </switch>
</svg>
