<?xml version="1.0" encoding="utf-8"?>
<!-- Generator: Adobe Illustrator 22.1.0, SVG Export Plug-In . SVG Version: 6.00 Build 0)  -->
<svg version="1.1" id="Layer_1" xmlns="http://www.w3.org/2000/svg" xmlns:xlink="http://www.w3.org/1999/xlink" x="0px" y="0px"
	 viewBox="0 0 42 42" style="enable-background:new 0 0 42 42;" xml:space="preserve">
<style type="text/css">
	.st0{fill:#FDC473;}
</style>
<title>calendar</title>
<g>
	<path d="M30.9,11c0.6,0.6,1.1,1.5,1.1,2.5c0,1.9-1.6,3.5-3.5,3.5S25,15.4,25,13.5c0-1,0.4-1.9,1.1-2.5H14.9
		c0.6,0.6,1.1,1.5,1.1,2.5c0,1.9-1.6,3.5-3.5,3.5S9,15.4,9,13.5c0-1,0.4-1.9,1.1-2.5H5v6.9v0.9V24v0.9v5.2V31v6h6h0.9h5.2H18h5.2
		h0.9h5.2H30h6v-6.1V30v-5.2V24v-5.2v-0.9V11H30.9z M11,36H6v-5h5V36z M11,30H6v-5h5V30z M11,24H6v-5h5V24z M17,36h-5v-5h5V36z
		 M17,30h-5v-5h5V30z M17,24h-5v-5h5V24z M23,36h-5v-5h5V36z M23,30h-5v-5h5V30z M23,24h-5v-5h5V24z M29,36h-5v-5h5V36z M29,24h-5
		v-5h5V24z M35,36h-5v-5h5V36z M35,30h-5v-5h5V30z M35,24h-5v-5h5V24z"/>
	<path d="M12.5,15c0.8,0,1.5-0.7,1.5-1.5v-7C14,5.7,13.3,5,12.5,5S11,5.7,11,6.5v7C11,14.3,11.7,15,12.5,15z"/>
	<path d="M28.5,15c0.8,0,1.5-0.7,1.5-1.5v-7C30,5.7,29.3,5,28.5,5S27,5.7,27,6.5v7C27,14.3,27.7,15,28.5,15z"/>
</g>
<rect x="24" y="25" class="st0" width="5" height="5"/>
</svg>
