<svg id="Layer_1" data-name="Layer 1" xmlns="http://www.w3.org/2000/svg" xmlns:xlink="http://www.w3.org/1999/xlink" viewBox="0 0 32 32"><defs><style>.cls-1{fill:none;}.cls-2{clip-path:url(#clip-path);}.cls-3{fill:#29235c;}</style><clipPath id="clip-path"><rect class="cls-1" x="5.24" y="0.63" width="21.53" height="30.75"/></clipPath></defs><title>Rubric Icons</title><g class="cls-2"><path class="cls-3" d="M16,19.07a7.39,7.39,0,0,1-6.15-3.29c0-2,4.11-3.16,6.15-3.16s6.12,1.12,6.15,3.16A7.39,7.39,0,0,1,16,19.07M16,3.7a3.08,3.08,0,1,1-3.08,3.07A3.08,3.08,0,0,1,16,3.7M16,.62A10.77,10.77,0,0,0,5.24,11.39c0,8.07,10.76,20,10.76,20s10.76-11.91,10.76-20A10.77,10.77,0,0,0,16,.62"/></g></svg>