<svg id="Layer_1" data-name="Layer 1" xmlns="http://www.w3.org/2000/svg" xmlns:xlink="http://www.w3.org/1999/xlink" viewBox="0 0 32 32"><defs><style>.cls-1{fill:none;}.cls-2{clip-path:url(#clip-path);}.cls-3{fill:#29235c;}</style><clipPath id="clip-path"><rect class="cls-1" x="1" y="1" width="30.3" height="30.3"/></clipPath></defs><title>Rubric Icons</title><g class="cls-2"><path class="cls-3" d="M26.39,19.49a3.73,3.73,0,1,1-3.73-3.73,3.73,3.73,0,0,1,3.73,3.73M19.88,9a3.73,3.73,0,1,1-3.73-3.73A3.73,3.73,0,0,1,19.88,9M10,15.76a3.74,3.74,0,1,1-3.73,3.73A3.73,3.73,0,0,1,10,15.76m21.31.39A15.15,15.15,0,1,0,16.15,31.3,15.15,15.15,0,0,0,31.3,16.15"/></g></svg>